<svg width="25" height="25" viewBox="0 0 25 25" fill="none" xmlns="http://www.w3.org/2000/svg">
<g clip-path="url(#clip0_4_98)">
<path d="M12.7232 15.5405C14.3801 15.5405 15.7232 14.1973 15.7232 12.5405C15.7232 10.8836 14.3801 9.54049 12.7232 9.54049C11.0664 9.54049 9.72321 10.8836 9.72321 12.5405C9.72321 14.1973 11.0664 15.5405 12.7232 15.5405Z" stroke="white" stroke-width="2" stroke-linecap="round" stroke-linejoin="round"/>
<path d="M20.1232 15.5405C19.9901 15.8421 19.9504 16.1767 20.0092 16.5011C20.068 16.8255 20.2227 17.1248 20.4532 17.3605L20.5132 17.4205C20.6992 17.6062 20.8467 17.8268 20.9473 18.0696C21.048 18.3124 21.0998 18.5727 21.0998 18.8355C21.0998 19.0983 21.048 19.3586 20.9473 19.6014C20.8467 19.8442 20.6992 20.0647 20.5132 20.2505C20.3275 20.4364 20.1069 20.584 19.8641 20.6846C19.6213 20.7853 19.361 20.8371 19.0982 20.8371C18.8354 20.8371 18.5751 20.7853 18.3323 20.6846C18.0895 20.584 17.869 20.4364 17.6832 20.2505L17.6232 20.1905C17.3875 19.96 17.0882 19.8053 16.7638 19.7465C16.4394 19.6877 16.1048 19.7274 15.8032 19.8605C15.5074 19.9873 15.2552 20.1977 15.0775 20.466C14.8998 20.7343 14.8045 21.0487 14.8032 21.3705V21.5405C14.8032 22.0709 14.5925 22.5796 14.2174 22.9547C13.8423 23.3298 13.3336 23.5405 12.8032 23.5405C12.2728 23.5405 11.7641 23.3298 11.389 22.9547C11.0139 22.5796 10.8032 22.0709 10.8032 21.5405V21.4505C10.7955 21.1195 10.6883 20.7985 10.4957 20.5292C10.3031 20.2599 10.0339 20.0548 9.72321 19.9405C9.42159 19.8074 9.08701 19.7677 8.76262 19.8265C8.43822 19.8853 8.13888 20.04 7.90321 20.2705L7.84321 20.3305C7.65746 20.5164 7.43688 20.664 7.19409 20.7646C6.95129 20.8653 6.69104 20.9171 6.42821 20.9171C6.16537 20.9171 5.90512 20.8653 5.66232 20.7646C5.41953 20.664 5.19895 20.5164 5.01321 20.3305C4.82725 20.1447 4.67973 19.9242 4.57909 19.6814C4.47844 19.4386 4.42663 19.1783 4.42663 18.9155C4.42663 18.6527 4.47844 18.3924 4.57909 18.1496C4.67973 17.9068 4.82725 17.6862 5.01321 17.5005L5.07321 17.4405C5.30374 17.2048 5.45839 16.9055 5.51721 16.5811C5.57603 16.2567 5.53632 15.9221 5.40321 15.6205C5.27644 15.3247 5.06596 15.0725 4.79767 14.8948C4.52938 14.7171 4.21499 14.6218 3.89321 14.6205H3.72321C3.19277 14.6205 2.68406 14.4098 2.30899 14.0347C1.93392 13.6596 1.72321 13.1509 1.72321 12.6205C1.72321 12.0901 1.93392 11.5813 2.30899 11.2063C2.68406 10.8312 3.19277 10.6205 3.72321 10.6205H3.81321C4.1442 10.6127 4.46521 10.5056 4.7345 10.313C5.0038 10.1204 5.20892 9.85122 5.32321 9.54049C5.45632 9.23887 5.49603 8.9043 5.43721 8.5799C5.37839 8.25551 5.22374 7.95617 4.99321 7.72049L4.93321 7.66049C4.74725 7.47474 4.59973 7.25417 4.49909 7.01137C4.39844 6.76857 4.34663 6.50832 4.34663 6.24549C4.34663 5.98266 4.39844 5.7224 4.49909 5.47961C4.59973 5.23681 4.74725 5.01624 4.93321 4.83049C5.11895 4.64454 5.33953 4.49702 5.58232 4.39637C5.82512 4.29572 6.08537 4.24392 6.34821 4.24392C6.61104 4.24392 6.87129 4.29572 7.11409 4.39637C7.35688 4.49702 7.57746 4.64454 7.76321 4.83049L7.82321 4.89049C8.05888 5.12103 8.35822 5.27567 8.68262 5.33449C9.00701 5.39331 9.34159 5.3536 9.64321 5.22049H9.72321C10.019 5.09373 10.2712 4.88324 10.4489 4.61495C10.6266 4.34666 10.7219 4.03228 10.7232 3.71049V3.54049C10.7232 3.01006 10.9339 2.50135 11.309 2.12628C11.6841 1.7512 12.1928 1.54049 12.7232 1.54049C13.2536 1.54049 13.7623 1.7512 14.1374 2.12628C14.5125 2.50135 14.7232 3.01006 14.7232 3.54049V3.63049C14.7245 3.95228 14.8198 4.26666 14.9975 4.53495C15.1752 4.80324 15.4274 5.01373 15.7232 5.14049C16.0248 5.2736 16.3594 5.31331 16.6838 5.25449C17.0082 5.19567 17.3075 5.04103 17.5432 4.81049L17.6032 4.75049C17.789 4.56454 18.0095 4.41702 18.2523 4.31637C18.4951 4.21572 18.7554 4.16392 19.0182 4.16392C19.281 4.16392 19.5413 4.21572 19.7841 4.31637C20.0269 4.41702 20.2475 4.56454 20.4332 4.75049C20.6192 4.93624 20.7667 5.15681 20.8673 5.39961C20.968 5.6424 21.0198 5.90266 21.0198 6.16549C21.0198 6.42832 20.968 6.68857 20.8673 6.93137C20.7667 7.17417 20.6192 7.39474 20.4332 7.58049L20.3732 7.64049C20.1427 7.87617 19.988 8.17551 19.9292 8.4999C19.8704 8.8243 19.9101 9.15887 20.0432 9.46049V9.54049C20.17 9.83626 20.3805 10.0885 20.6487 10.2662C20.917 10.4439 21.2314 10.5392 21.5532 10.5405H21.7232C22.2536 10.5405 22.7623 10.7512 23.1374 11.1263C23.5125 11.5013 23.7232 12.0101 23.7232 12.5405C23.7232 13.0709 23.5125 13.5796 23.1374 13.9547C22.7623 14.3298 22.2536 14.5405 21.7232 14.5405H21.6332C21.3114 14.5418 20.997 14.6371 20.7287 14.8148C20.4605 14.9925 20.25 15.2447 20.1232 15.5405V15.5405Z" stroke="white" stroke-width="2" stroke-linecap="round" stroke-linejoin="round"/>
</g>
<defs>
<clipPath id="clip0_4_98">
<rect width="24" height="24" fill="white" transform="translate(0.723206 0.540489)"/>
</clipPath>
</defs>
</svg>
